# xmcd
#
# Track frame offsets:
#	150
#	14420
#	31872
#	44175
#	60395
#	75485
#	89592
#	103950
#	134010
#	150760
#	166445
#	182075
#	196352
#	215407
#	234155
#	249515
#	265627
#	276860
#	291965
#
# Disc length: 4123 seconds
#
# Revision: 0
# Processed by: cddbd v1.5.1PL0 Copyright (c) Steve Scherf et al.
# Submitted via: audiograbber 1.83.01
#
DISCID=0a101913
DTITLE=Powder Blues - First Decade/Greatest Hits
DYEAR=1990
DGENRE=Blues
TTITLE0=Boppin' With The Blues
TTITLE1=Hear That Guitar Ring
TTITLE2=Just A Little
TTITLE3=The Rockhopper
TTITLE4=Doin' It Right
TTITLE5=Buzzard Luck
TTITLE6=What've I Been Drinkin'
TTITLE7=Personal Manager
TTITLE8=Sweet Little Girl
TTITLE9=Thirsty Ears
TTITLE10=Should Be You And Me
TTITLE11=Swami Swing
TTITLE12=Joyridn'
TTITLE13=Nothin' But A Tease
TTITLE14=Lovin' Kissin' and Huggin'
TTITLE15=Pushy
TTITLE16=Your Daddy
TTITLE17=Slow Motion Walter
TTITLE18=I'm On The Road Again
EXTD=
EXTT0=
EXTT1=
EXTT2=
EXTT3=
EXTT4=
EXTT5=
EXTT6=
EXTT7=
EXTT8=
EXTT9=
EXTT10=
EXTT11=
EXTT12=
EXTT13=
EXTT14=
EXTT15=
EXTT16=
EXTT17=
EXTT18=
PLAYORDER=
